<?xml version="1.0" standalone="no"?>
<!DOCTYPE svg PUBLIC "-//W3C//DTD SVG 20010904//EN"
 "http://www.w3.org/TR/2001/REC-SVG-20010904/DTD/svg10.dtd">
<svg version="1.0" xmlns="http://www.w3.org/2000/svg"
 width="1195.000000pt" height="1195.000000pt" viewBox="0 0 1195.000000 1195.000000"
 preserveAspectRatio="xMidYMid meet">
<metadata>
Created by potrace 1.11, written by Peter Selinger 2001-2013
</metadata>
<g transform="translate(0.000000,1195.000000) scale(0.100000,-0.100000)"
fill="#000000" stroke="none">
<path d="M2585 6076 l0 -4754 1028 0 1027 0 0 1424 c0 1132 3 1424 13 1424 6
1 428 3 937 5 509 2 948 6 975 9 28 2 84 7 125 10 41 4 89 8 105 11 17 2 53 7
80 10 28 4 61 8 75 11 14 2 45 6 70 10 63 8 279 51 375 75 44 11 87 22 95 24
188 47 461 144 635 226 39 18 72 33 75 34 7 2 160 82 195 102 96 56 218 133
273 173 35 25 74 52 85 60 105 71 315 264 457 420 85 94 310 402 310 426 0 3
8 18 19 32 107 154 297 640 336 861 3 19 8 38 10 41 3 4 7 25 10 46 3 22 8 50
11 64 3 13 7 38 10 55 2 16 5 39 8 50 2 11 7 49 11 85 4 36 9 73 11 83 25 133
24 740 -2 871 -2 11 -6 50 -10 86 -3 36 -9 81 -14 100 -4 19 -11 58 -15 85 -4
28 -18 95 -31 150 -14 55 -27 111 -30 125 -9 45 -111 343 -140 410 -42 95
-172 352 -189 370 -8 9 -15 22 -15 28 0 6 -6 17 -12 24 -7 7 -46 63 -87 123
-41 61 -77 112 -80 115 -4 3 -40 45 -81 95 -412 493 -997 843 -1720 1025 -47
12 -96 24 -110 26 -14 3 -47 9 -75 14 -27 6 -61 12 -75 15 -14 3 -36 7 -50 9
-28 6 -71 12 -145 21 -27 4 -60 8 -72 10 -12 2 -57 6 -100 10 -43 4 -91 9
-108 12 -16 3 -968 8 -2115 10 l-2085 4 0 -4755z m3945 2850 c25 -4 68 -11 95
-16 28 -6 68 -12 90 -16 113 -16 332 -88 450 -146 187 -94 368 -244 478 -399
87 -123 177 -328 202 -461 33 -169 39 -234 39 -403 -1 -171 -10 -250 -45 -388
-52 -207 -167 -424 -266 -504 -26 -21 -59 -48 -73 -59 -14 -12 -70 -59 -125
-104 -55 -45 -111 -92 -125 -104 -14 -11 -47 -39 -75 -61 -27 -22 -51 -43 -53
-47 -2 -5 -11 -8 -21 -8 -9 0 -21 -4 -27 -9 -15 -15 -209 -85 -264 -96 -8 -2
-42 -10 -75 -19 -33 -8 -82 -18 -110 -22 -27 -3 -59 -8 -70 -10 -69 -14 -295
-18 -1055 -18 l-855 -1 -3 1453 -2 1453 922 -4 c508 -3 943 -8 968 -11z"/>
</g>
</svg>
